<?xml version="1.0" encoding="utf-8"?>
<!-- Generator: Adobe Illustrator 25.0.1, SVG Export Plug-In . SVG Version: 6.00 Build 0)  -->
<svg version="1.1" id="레이어_1" xmlns="http://www.w3.org/2000/svg" xmlns:xlink="http://www.w3.org/1999/xlink" x="0px"
	 y="0px" viewBox="0 0 101.3 19.8" style="enable-background:new 0 0 101.3 19.8;" xml:space="preserve">
<style type="text/css">
	.st0{fill:#FFFFFF;}
</style>
<g>
	<polygon class="st0" points="91.4,0.7 92.8,0.7 92.8,5 94.3,5 94.3,0.7 95.7,0.7 95.7,0 91.4,0 	"/>
	<polygon class="st0" points="99.9,0 99.9,0.7 99.2,0.7 99.2,1.4 98.5,1.4 98.5,0.7 97.8,0.7 97.8,0 96.4,0 96.4,5 97.8,5 97.8,2.1 
		98.5,2.1 98.5,2.8 99.2,2.8 99.2,2.1 99.9,2.1 99.9,5 101.3,5 101.3,0 	"/>
	<path class="st0" d="M14.2,0h-2.8H8.5H5.7H2.8H0v2.8v2.8v2.8v2.8v2.8V17v2.8h2.8h2.8h2.8h2.8h2.8V17H17v-2.8v-2.8V8.5V5.7V2.8h-2.8
		V0z M11.3,5.7v2.8v2.8v2.8V17H8.5H5.7v-2.8v-2.8V8.5V5.7V2.8h2.8h2.8V5.7z"/>
	<path class="st0" d="M34,0h-2.8h-2.8h-2.8h-2.8v2.8h-2.8v2.8v2.8v2.8v2.8V17h2.8v2.8h2.8h2.8h2.8H34V17h2.8v-2.8v-2.8V8.5V5.7V2.8
		H34V0z M31.2,5.7v2.8v2.8v2.8V17h-2.8h-2.8v-2.8v-2.8V8.5V5.7V2.8h2.8h2.8V5.7z"/>
	<path class="st0" d="M53.9,0H51h-2.8h-2.8h-2.8h-2.8v2.8v2.8v2.8v2.8v2.8V17v2.8h2.8h2.8V17v-2.8v-2.8h2.8H51v2.8V17v2.8h2.8h2.8
		V17v-2.8v-2.8h-2.8V8.5h2.8V5.7V2.8h-2.8V0z M51,5.7v2.8h-2.8h-2.8V5.7V2.8h2.8H51V5.7z"/>
	<polygon class="st0" points="65.2,0 62.4,0 59.5,0 59.5,2.8 62.4,2.8 62.4,5.7 62.4,8.5 62.4,11.3 62.4,14.2 62.4,17 59.5,17 
		59.5,19.8 62.4,19.8 65.2,19.8 68,19.8 70.9,19.8 70.9,17 68,17 68,14.2 68,11.3 68,8.5 68,5.7 68,2.8 70.9,2.8 70.9,0 68,0 	"/>
	<polygon class="st0" points="87.9,0 85,0 82.2,0 79.4,0 76.5,0 76.5,2.8 73.7,2.8 73.7,5.7 73.7,8.5 76.5,8.5 76.5,11.3 79.4,11.3 
		82.2,11.3 85,11.3 85,14.2 85,17 82.2,17 79.4,17 79.4,14.2 76.5,14.2 73.7,14.2 73.7,17 76.5,17 76.5,19.8 79.4,19.8 82.2,19.8 
		85,19.8 87.9,19.8 87.9,17 90.7,17 90.7,14.2 90.7,11.3 87.9,11.3 87.9,8.5 85,8.5 82.2,8.5 79.4,8.5 79.4,5.7 79.4,2.8 82.2,2.8 
		85,2.8 85,5.7 87.9,5.7 90.7,5.7 90.7,2.8 87.9,2.8 	"/>
</g>
</svg>
