<?xml version="1.0" encoding="utf-8"?>
<!-- Generator: Adobe Illustrator 21.0.0, SVG Export Plug-In . SVG Version: 6.00 Build 0)  -->
<svg version="1.1" id="레이어_1" xmlns="http://www.w3.org/2000/svg" xmlns:xlink="http://www.w3.org/1999/xlink" x="0px"
	 y="0px" viewBox="0 0 90.7099991 42.5200005" style="enable-background:new 0 0 90.7099991 42.5200005;" xml:space="preserve">
<g>
	<g>
		<polygon style="fill:#ffffff;" points="53.8573532,0 53.8573532,2.8346522 51.024025,2.8346522 51.024025,5.6693044 
			48.1892738,5.6693044 48.1892738,2.8346522 45.3559914,2.8346522 45.3559914,0 39.6864891,0 39.6864891,19.8425198 
			45.3559914,19.8425198 45.3559914,8.5039568 48.1892738,8.5039568 48.1892738,11.3386087 51.024025,11.3386087 
			51.024025,8.5039568 53.8573532,8.5039568 53.8573532,19.8425198 59.5268593,19.8425198 59.5268593,0 		"/>
		<path style="fill:#ffffff;" d="M14.1737623,0H0v19.8425198h14.1737623v-2.8346062h2.8347521V2.8346522h-2.8347521V0z
			 M11.3390093,17.0079136H5.6695046V2.8346522h5.6695046V17.0079136z"/>
		<path style="fill:#ffffff;" d="M34.016983,0H22.6779728v2.8346522h-2.8347054v14.1732616h2.8347054v2.8346062H34.016983
			v-2.8346062h2.8347511V2.8346522H34.016983V0z M31.18223,17.0079136h-5.6695042V2.8346522H31.18223V17.0079136z"/>
		<path style="fill:#ffffff;" d="M76.5353241,0H65.1963654v2.8346522h-2.8347549v14.1732616h2.8347549v2.8346062h11.3389587
			v-2.8346062h2.8347549V2.8346522h-2.8347549V0z M73.7006226,17.0079136h-5.6695099V2.8346522h5.6695099V17.0079136z"/>
	</g>
</g>
<g>
	<g>
		<polygon style="fill:#ffffff;" points="53.8573532,22.6771717 53.8573532,25.5118237 51.024025,25.5118237 51.024025,28.3464756 
			48.1892738,28.3464756 48.1892738,25.5118237 45.3559914,25.5118237 45.3559914,22.6771717 39.6864891,22.6771717 
			39.6864891,42.5196915 45.3559914,42.5196915 45.3559914,31.1811295 48.1892738,31.1811295 48.1892738,34.0157814 
			51.024025,34.0157814 51.024025,31.1811295 53.8573532,31.1811295 53.8573532,42.5196915 59.5268593,42.5196915 
			59.5268593,22.6771717 		"/>
		<path style="fill:#ffffff;" d="M14.1737623,22.6771717H0v19.8425198h14.1737623v-2.8346062h2.8347521V25.5118237h-2.8347521
			V22.6771717z M11.3390093,39.6850853H5.6695046V25.5118237h5.6695046V39.6850853z"/>
		<path style="fill:#ffffff;" d="M34.016983,22.6771717H22.6779728v2.8346519h-2.8347054v14.1732616h2.8347054v2.8346062H34.016983
			v-2.8346062h2.8347511V25.5118237H34.016983V22.6771717z M31.18223,39.6850853h-5.6695042V25.5118237H31.18223V39.6850853z"/>
		<path style="fill:#ffffff;" d="M76.5353241,22.6771717H65.1963654v2.8346519h-2.8347549v14.1732616h2.8347549v2.8346062
			h11.3389587v-2.8346062h2.8347549V25.5118237h-2.8347549V22.6771717z M73.7006226,39.6850853h-5.6695099V25.5118237h5.6695099
			V39.6850853z"/>
	</g>
</g>
<polyline style="fill:#ffffff;" points="80.7875748,0 80.7875748,0.7086266 82.2048874,0.7086266 82.2048874,4.9606299 
	83.6222687,4.9606299 83.6222687,0.7086266 85.0395203,0.7086266 85.0395203,0 80.7875748,0 80.7875748,0.7086266 "/>
<polyline style="fill:#ffffff;" points="89.2915192,0 89.2915192,0.7086266 88.5828934,0.7086266 88.5828934,1.4172531 
	87.8742676,1.4172531 87.8742676,0.7086266 87.1655197,0.7086266 87.1655197,0 85.7482681,0 85.7482681,4.9606299 
	87.1655197,4.9606299 87.1655197,2.1260016 87.8742676,2.1260016 87.8742676,2.8346283 88.5828934,2.8346283 88.5828934,2.1260016 
	89.2915192,2.1260016 89.2915192,4.9606299 90.7089005,4.9606299 90.7089005,0 89.2915192,0 89.2915192,0.7086266 "/>
</svg>
